REM MD5 dd9a1ff526ffa1f6c1a5c00b5a42faa0
FILE "Simple 1500 Jitsuyou Series Vol. 02 - Katei no Fuusui (Japan).bin" BINARY
  TRACK 01 MODE2/2352
    INDEX 01 00:00:00
  TRACK 02 AUDIO
    INDEX 00 00:22:32
    INDEX 01 00:24:32
  TRACK 03 AUDIO
    INDEX 00 04:18:26
    INDEX 01 04:20:26
REM LEADOUT 08:23:03
